# Blender v2.80 (sub 75) OBJ File: ''
# www.blender.org
mtllib ramp.mtl
o Cube_Cube.001
v -1.000000 -1.000000 1.000000
v -1.000000 1.000000 1.000000
v -1.000000 -1.000000 -1.000000
v -1.000000 1.000000 -1.000000
v 1.000000 -1.000000 1.000000
v 1.000000 -1.000000 -1.000000
vt 0.625000 0.000000
vt 0.375000 0.250000
vt 0.375000 0.000000
vt 0.375000 0.500000
vt 0.625000 0.250000
vt 0.125000 0.750000
vt 0.375000 0.750000
vt 0.125000 0.500000
vn -1.0000 0.0000 0.0000
vn 0.7071 0.7071 0.0000
vn 0.0000 0.0000 1.0000
vn 0.0000 0.0000 -1.0000
vn 0.0000 -1.0000 0.0000
g Cube_Cube.001_None
usemtl None
s off
f 2/1/1 3/2/1 1/3/1
f 2/1/2 6/4/2 4/5/2
f 2/1/3 1/6/3 5/7/3
f 3/8/4 4/5/4 6/4/4
f 6/4/5 1/6/5 3/8/5
f 2/1/1 4/5/1 3/2/1
f 2/1/2 5/7/2 6/4/2
f 6/4/5 5/7/5 1/6/5
